# xmcd
#
# Track frame offsets: 
#        150
#        15150
#        28412
#        42512
#        55550
#        67887
#        79900
#        94687
#        112375
#        129662
#        138775
#        151812
#        167725
#        183825
#        198500
#        216150
#
# Disc length: 3046 seconds
#
# Revision: 3
# Processed by: cddbd v1.5.1PL0 Copyright (c) Steve Scherf et al.
# Submitted via: ExactAudioCopy v0.95a5
#
DISCID=d60be410
DTITLE=Various Artist - Country Hall Of Fame 2 (The Spirit Of America Series)
DYEAR=1993
DGENRE=Country
TTITLE0=The Bellamy Brothers - Dancing Cowboys
TTITLE1=Tammy Wynette - D.I.V.O.R.C.E:
TTITLE2=Bobby Bare - Too Many Nights Alone
TTITLE3=Willie Nelson - Good Hearted Woman
TTITLE4=Dolly Parton - If You Need Me
TTITLE5=Larry Gatlin and Gatlin Brothers Band - Broken Lady
TTITLE6=George Jones - He Stopped Loving Her Today
TTITLE7=Charlie Rich - My Elusive Dreams
TTITLE8=Ricky Skaggs - Country Boy
TTITLE9=Frankie Laine - Rawhide
TTITLE10=Lester Flatt and Earl Scruggs - I'll Go Stepping Too
TTITLE11=Willie Nelson - Allways On My Mind
TTITLE12=Janie Fricke - Believe In You
TTITLE13=Dolly Parton and Willie Nelson - Everything Is Beatiful (In Its
TTITLE13=Own Way)
TTITLE14=The Charlie Daniels Band - Behind Your Eyes
TTITLE15=Johnny Cash - Folsom Prison Blues
EXTD=(c)1993 Sony Music Entertainment - COLUMBIA\\nupc 5099747230622\n
EXTD=COL 472306-2 
EXTT0=
EXTT1=
EXTT2=
EXTT3=
EXTT4=
EXTT5=
EXTT6=
EXTT7=
EXTT8=
EXTT9=
EXTT10=
EXTT11=
EXTT12=
EXTT13=
EXTT14=
EXTT15=
PLAYORDER=
